<?xml version="1.0" standalone="no"?>
<!DOCTYPE svg PUBLIC "-//W3C//DTD SVG 20010904//EN"
 "http://www.w3.org/TR/2001/REC-SVG-20010904/DTD/svg10.dtd">
<svg version="1.0" xmlns="http://www.w3.org/2000/svg"
 width="418.000000pt" height="412.000000pt" viewBox="0 0 418.000000 412.000000"
 preserveAspectRatio="xMidYMid meet">

<g transform="translate(0.000000,412.000000) scale(0.100000,-0.100000)"
fill="#000000" stroke="none">
<path d="M2465 3784 c-197 -30 -307 -64 -445 -136 -183 -94 -344 -239 -450
-403 -72 -111 -84 -123 -195 -195 -139 -90 -284 -242 -370 -388 -28 -48 -48
-68 -98 -98 -95 -58 -155 -105 -235 -184 -171 -172 -283 -376 -339 -622 -20
-90 -23 -362 -5 -458 34 -175 92 -318 187 -460 182 -274 444 -453 765 -523 75
-16 130 -20 260 -20 151 0 175 3 280 30 63 17 149 44 190 62 225 93 436 273
563 480 28 46 63 90 77 99 205 122 370 284 474 465 17 29 41 54 64 66 117 61
283 208 380 338 159 212 252 512 238 769 -15 279 -97 503 -262 717 -174 226
-439 389 -723 443 -77 15 -302 26 -356 18z m255 -355 c92 -14 217 -59 307
-110 106 -60 252 -206 312 -312 127 -225 153 -488 73 -721 -29 -86 -108 -236
-124 -236 -4 0 -8 24 -8 54 0 125 -57 347 -123 477 -132 260 -359 475 -617
585 -110 46 -267 85 -372 91 -54 3 -98 9 -98 12 0 7 70 51 130 81 152 77 349
107 520 79z m-510 -530 c165 -26 320 -104 447 -223 182 -172 274 -384 274
-636 0 -98 -16 -210 -40 -272 -11 -30 -38 -41 -155 -63 -475 -91 -938 241
-1017 729 -20 125 6 368 44 420 24 31 219 66 332 58 28 -1 79 -8 115 -13z
m-805 -658 c27 -102 102 -268 156 -348 215 -318 554 -516 937 -549 l83 -7 -53
-35 c-209 -141 -510 -173 -772 -82 -155 53 -317 180 -415 325 -112 164 -153
301 -152 509 0 163 41 303 130 448 l36 58 12 -111 c7 -62 24 -155 38 -208z
m-562 -308 c13 -231 109 -467 272 -670 198 -248 526 -420 838 -440 53 -3 97
-9 97 -12 0 -10 -97 -67 -171 -100 -83 -38 -244 -71 -341 -71 -463 1 -846 360
-875 821 -11 187 34 362 136 526 14 24 29 43 32 43 3 0 9 -44 12 -97z"/>
</g>
</svg>
